ffmpeg started on 2025-05-13 at 10:32:41
Report written to "D:\Convert\FFMetrics\reports\psnr_report-6.txt"
Log level: 32
Command line:
ffmpeg -hide_banner -nostdin -i "G:\\\xc0\xed\xe8\xec\xe5\\\xce\xed\xe3\xee\xe8\xed\xe3\xe8\\!_35_\xcb\xe5\xf2\xee_2024\\DreamCast-1\\\xdf \xf1\xf2\xe0\xeb \xf1\xe0\xec\xfb\xec \xf1\xe8\xeb\xfc\xed\xfb\xec \xf1 \xef\xf0\xee\xe2\xe0\xeb\xfc\xed\xfb\xec \xed\xe0\xe2\xfb\xea\xee\xec \xab\xed\xe5\xed\xee\xf0\xec\xe0\xeb\xfc\xed\xee\xe5 \xf1\xee\xf1\xf2\xee\xff\xed\xe8\xe5\xbb, \xff \xf0\xe0\xe7\xf0\xf3\xf8\xf3 \xe2\xf1\xb8\\[DC] Hazurewaku - 01_Telegram_HEVC.mkv" -i "G:\\\xc0\xed\xe8\xec\xe5\\\xce\xed\xe3\xee\xe8\xed\xe3\xe8\\!_35_\xcb\xe5\xf2\xee_2024\\DreamCast-1\\\xdf \xf1\xf2\xe0\xeb \xf1\xe0\xec\xfb\xec \xf1\xe8\xeb\xfc\xed\xfb\xec \xf1 \xef\xf0\xee\xe2\xe0\xeb\xfc\xed\xfb\xec \xed\xe0\xe2\xfb\xea\xee\xec \xab\xed\xe5\xed\xee\xf0\xec\xe0\xeb\xfc\xed\xee\xe5 \xf1\xee\xf1\xf2\xee\xff\xed\xe8\xe5\xbb, \xff \xf0\xe0\xe7\xf0\xf3\xf8\xf3 \xe2\xf1\xb8\\[DC] Hazurewaku - 01_Telegram.mp4" -lavfi "[0:v]settb=AVTB,setpts=PTS-STARTPTS,format=pix_fmts=yuv420p10,fps=24000/1001,scale=1920:1080:flags=bicubic[main];[1:v]settb=AVTB,setpts=PTS-STARTPTS,format=pix_fmts=yuv420p,fps=24000/1001,scale=1920:1080:flags=bicubic[ref];[main][ref]psnr=eof_action=endall:stats_file='D\\:/Convert/FFMetrics/logs/psnr_logfile-6.txt'" -f null -
Input #0, matroska,webm, from 'G:\Аниме\Онгоинги\!_35_Лето_2024\DreamCast-1\Я стал самым сильным с провальным навыком «ненормальное состояние», я разрушу всё\[DC] Hazurewaku - 01_Telegram_HEVC.mkv':
  Metadata:
    COMPATIBLE_BRANDS: isomiso2avc1mp41
    MAJOR_BRAND     : isom
    MINOR_VERSION   : 512
    ENCODER         : Lavf61.7.100
  Duration: 00:24:16.68, start: -0.021000, bitrate: 1618 kb/s
  Stream #0:0: Video: hevc (Main 10), yuv420p10le(tv, bt709, progressive), 1920x1080 [SAR 1:1 DAR 16:9], 23.98 fps, 23.98 tbr, 1k tbn (default)
      Metadata:
        HANDLER_NAME    : VideoHandler
        VENDOR_ID       : [0][0][0][0]
        ENCODER         : Lavc61.19.100 libx265
        BPS             : 1422769
        DURATION        : 00:24:16.538708333
        NUMBER_OF_FRAMES: 34922
        NUMBER_OF_BYTES : 259039667
        _STATISTICS_WRITING_APP: mkvpropedit v66.0.0 ('Josie') 64-bit
        _STATISTICS_WRITING_DATE_UTC: 2025-05-11 14:13:30
        _STATISTICS_TAGS: BPS DURATION NUMBER_OF_FRAMES NUMBER_OF_BYTES
  Stream #0:1: Audio: aac (LC), 48000 Hz, stereo, fltp (default)
      Metadata:
        HANDLER_NAME    : SoundHandler
        VENDOR_ID       : [0][0][0][0]
        ENCODER         : Lavc61.19.100 aac
        BPS             : 191710
        DURATION        : 00:24:16.682000000
        NUMBER_OF_FRAMES: 68283
        NUMBER_OF_BYTES : 34907665
        _STATISTICS_WRITING_APP: mkvpropedit v66.0.0 ('Josie') 64-bit
        _STATISTICS_WRITING_DATE_UTC: 2025-05-11 14:13:30
        _STATISTICS_TAGS: BPS DURATION NUMBER_OF_FRAMES NUMBER_OF_BYTES
Input #1, mov,mp4,m4a,3gp,3g2,mj2, from 'G:\Аниме\Онгоинги\!_35_Лето_2024\DreamCast-1\Я стал самым сильным с провальным навыком «ненормальное состояние», я разрушу всё\[DC] Hazurewaku - 01_Telegram.mp4':
  Metadata:
    major_brand     : isom
    minor_version   : 512
    compatible_brands: isomiso2avc1mp41
    encoder         : Lavf61.1.100
  Duration: 00:24:16.65, start: 0.000000, bitrate: 3928 kb/s
  Stream #1:0[0x1](und): Video: h264 (High) (avc1 / 0x31637661), yuv420p(tv, bt709, progressive), 1920x1080 [SAR 1:1 DAR 16:9], 3780 kb/s, 23.98 fps, 23.98 tbr, 24k tbn (default)
      Metadata:
        handler_name    : VideoHandler
        vendor_id       : [0][0][0][0]
        encoder         : Lavc61.3.100 h264_qsv
  Stream #1:1[0x2](und): Audio: aac (HE-AACv2) (mp4a / 0x6134706D), 48000 Hz, stereo, fltp, 144 kb/s (default)
      Metadata:
        handler_name    : SoundHandler
        vendor_id       : [0][0][0][0]
Stream mapping:
  Stream #0:0 (hevc) -> settb:default
  Stream #1:0 (h264) -> settb:default
  psnr:default -> Stream #0:0 (wrapped_avframe)
  Stream #0:1 -> #0:1 (aac (native) -> pcm_s16le (native))
Output #0, null, to 'pipe:':
  Metadata:
    COMPATIBLE_BRANDS: isomiso2avc1mp41
    MAJOR_BRAND     : isom
    MINOR_VERSION   : 512
    encoder         : Lavf61.7.100
  Stream #0:0: Video: wrapped_avframe, yuv420p10le(tv, bt709, progressive), 1920x1080 [SAR 1:1 DAR 16:9], q=2-31, 200 kb/s, 23.98 fps, 23.98 tbn
      Metadata:
        encoder         : Lavc61.19.100 wrapped_avframe
  Stream #0:1: Audio: pcm_s16le, 48000 Hz, stereo, s16, 1536 kb/s (default)
      Metadata:
        HANDLER_NAME    : SoundHandler
        VENDOR_ID       : [0][0][0][0]
        _STATISTICS_TAGS: BPS DURATION NUMBER_OF_FRAMES NUMBER_OF_BYTES
        BPS             : 191710
        DURATION        : 00:24:16.682000000
        NUMBER_OF_FRAMES: 68283
        NUMBER_OF_BYTES : 34907665
        _STATISTICS_WRITING_APP: mkvpropedit v66.0.0 ('Josie') 64-bit
        _STATISTICS_WRITING_DATE_UTC: 2025-05-11 14:13:30
        encoder         : Lavc61.19.100 pcm_s16le
frame=  179 fps=0.0 q=-0.0 size=N/A time=00:00:07.46 bitrate=N/A speed=14.5x    frame=  431 fps=422 q=-0.0 size=N/A time=00:00:17.97 bitrate=N/A speed=17.6x    frame=  674 fps=436 q=-0.0 size=N/A time=00:00:28.11 bitrate=N/A speed=18.2x    frame=  898 fps=434 q=-0.0 size=N/A time=00:00:37.45 bitrate=N/A speed=18.1x    frame= 1154 fps=445 q=-0.0 size=N/A time=00:00:48.13 bitrate=N/A speed=18.6x    frame= 1381 fps=446 q=-0.0 size=N/A time=00:00:57.59 bitrate=N/A speed=18.6x    frame= 1583 fps=437 q=-0.0 size=N/A time=00:01:06.02 bitrate=N/A speed=18.2x    frame= 1805 fps=436 q=-0.0 size=N/A time=00:01:15.28 bitrate=N/A speed=18.2x    frame= 2015 fps=434 q=-0.0 size=N/A time=00:01:24.04 bitrate=N/A speed=18.1x    frame= 2240 fps=433 q=-0.0 size=N/A time=00:01:33.42 bitrate=N/A speed=18.1x    frame= 2466 fps=434 q=-0.0 size=N/A time=00:01:42.85 bitrate=N/A speed=18.1x    frame= 2678 fps=432 q=-0.0 size=N/A time=00:01:51.69 bitrate=N/A speed=  18x    frame= 2900 fps=432 q=-0.0 size=N/A time=00:02:00.95 bitrate=N/A speed=  18x    frame= 3108 fps=430 q=-0.0 size=N/A time=00:02:09.62 bitrate=N/A speed=17.9x    frame= 3327 fps=430 q=-0.0 size=N/A time=00:02:18.76 bitrate=N/A speed=17.9x    frame= 3542 fps=429 q=-0.0 size=N/A time=00:02:27.73 bitrate=N/A speed=17.9x    frame= 3791 fps=432 q=-0.0 size=N/A time=00:02:38.11 bitrate=N/A speed=  18x    frame= 4023 fps=433 q=-0.0 size=N/A time=00:02:47.79 bitrate=N/A speed=18.1x    frame= 4266 fps=435 q=-0.0 size=N/A time=00:02:57.92 bitrate=N/A speed=18.1x    frame= 4478 fps=434 q=-0.0 size=N/A time=00:03:06.76 bitrate=N/A speed=18.1x    frame= 4690 fps=433 q=-0.0 size=N/A time=00:03:15.61 bitrate=N/A speed=  18x    frame= 4906 fps=432 q=-0.0 size=N/A time=00:03:24.62 bitrate=N/A speed=  18x    frame= 5112 fps=431 q=-0.0 size=N/A time=00:03:33.21 bitrate=N/A speed=  18x    frame= 5342 fps=431 q=-0.0 size=N/A time=00:03:42.80 bitrate=N/A speed=  18x    frame= 5536 fps=429 q=-0.0 size=N/A time=00:03:50.89 bitrate=N/A speed=17.9x    frame= 5727 fps=427 q=-0.0 size=N/A time=00:03:58.86 bitrate=N/A speed=17.8x    frame= 5897 fps=423 q=-0.0 size=N/A time=00:04:05.95 bitrate=N/A speed=17.7x    frame= 6119 fps=423 q=-0.0 size=N/A time=00:04:15.21 bitrate=N/A speed=17.7x    frame= 6324 fps=423 q=-0.0 size=N/A time=00:04:23.76 bitrate=N/A speed=17.6x    frame= 6459 fps=417 q=-0.0 size=N/A time=00:04:29.39 bitrate=N/A speed=17.4x    frame= 6604 fps=413 q=-0.0 size=N/A time=00:04:35.44 bitrate=N/A speed=17.2x    frame= 6784 fps=411 q=-0.0 size=N/A time=00:04:42.94 bitrate=N/A speed=17.1x    frame= 7018 fps=412 q=-0.0 size=N/A time=00:04:52.70 bitrate=N/A speed=17.2x    frame= 7270 fps=414 q=-0.0 size=N/A time=00:05:03.21 bitrate=N/A speed=17.3x    frame= 7497 fps=415 q=-0.0 size=N/A time=00:05:12.68 bitrate=N/A speed=17.3x    frame= 7732 fps=416 q=-0.0 size=N/A time=00:05:22.48 bitrate=N/A speed=17.4x    frame= 7976 fps=418 q=-0.0 size=N/A time=00:05:32.66 bitrate=N/A speed=17.4x    frame= 8243 fps=421 q=-0.0 size=N/A time=00:05:43.80 bitrate=N/A speed=17.5x    frame= 8502 fps=422 q=-0.0 size=N/A time=00:05:54.60 bitrate=N/A speed=17.6x    frame= 8740 fps=424 q=-0.0 size=N/A time=00:06:04.53 bitrate=N/A speed=17.7x    frame= 8956 fps=423 q=-0.0 size=N/A time=00:06:13.53 bitrate=N/A speed=17.7x    frame= 9145 fps=422 q=-0.0 size=N/A time=00:06:21.42 bitrate=N/A speed=17.6x    frame= 9395 fps=424 q=-0.0 size=N/A time=00:06:31.84 bitrate=N/A speed=17.7x    frame= 9651 fps=425 q=-0.0 size=N/A time=00:06:42.52 bitrate=N/A speed=17.7x    frame= 9863 fps=425 q=-0.0 size=N/A time=00:06:51.36 bitrate=N/A speed=17.7x    frame=10093 fps=425 q=-0.0 size=N/A time=00:07:00.96 bitrate=N/A speed=17.7x    frame=10306 fps=425 q=-0.0 size=N/A time=00:07:09.84 bitrate=N/A speed=17.7x    frame=10518 fps=425 q=-0.0 size=N/A time=00:07:18.68 bitrate=N/A speed=17.7x    frame=10726 fps=424 q=-0.0 size=N/A time=00:07:27.36 bitrate=N/A speed=17.7x    frame=10908 fps=423 q=-0.0 size=N/A time=00:07:34.95 bitrate=N/A speed=17.6x    frame=11155 fps=424 q=-0.0 size=N/A time=00:07:45.25 bitrate=N/A speed=17.7x    frame=11384 fps=424 q=-0.0 size=N/A time=00:07:54.80 bitrate=N/A speed=17.7x    frame=11596 fps=424 q=-0.0 size=N/A time=00:08:03.64 bitrate=N/A speed=17.7x    frame=11821 fps=424 q=-0.0 size=N/A time=00:08:13.03 bitrate=N/A speed=17.7x    frame=12087 fps=426 q=-0.0 size=N/A time=00:08:24.12 bitrate=N/A speed=17.8x    frame=12314 fps=426 q=-0.0 size=N/A time=00:08:33.59 bitrate=N/A speed=17.8x    frame=12593 fps=428 q=-0.0 size=N/A time=00:08:45.23 bitrate=N/A speed=17.9x    frame=12846 fps=429 q=-0.0 size=N/A time=00:08:55.78 bitrate=N/A speed=17.9x    frame=13086 fps=430 q=-0.0 size=N/A time=00:09:05.79 bitrate=N/A speed=17.9x    frame=13296 fps=429 q=-0.0 size=N/A time=00:09:14.55 bitrate=N/A speed=17.9x    frame=13526 fps=430 q=-0.0 size=N/A time=00:09:24.14 bitrate=N/A speed=17.9x    frame=13782 fps=431 q=-0.0 size=N/A time=00:09:34.82 bitrate=N/A speed=  18x    frame=14038 fps=432 q=-0.0 size=N/A time=00:09:45.50 bitrate=N/A speed=  18x    frame=14288 fps=433 q=-0.0 size=N/A time=00:09:55.92 bitrate=N/A speed=  18x    frame=14520 fps=433 q=-0.0 size=N/A time=00:10:05.60 bitrate=N/A speed=18.1x    frame=14766 fps=434 q=-0.0 size=N/A time=00:10:15.86 bitrate=N/A speed=18.1x    frame=14980 fps=433 q=-0.0 size=N/A time=00:10:24.79 bitrate=N/A speed=18.1x    frame=15202 fps=433 q=-0.0 size=N/A time=00:10:34.05 bitrate=N/A speed=18.1x    frame=15406 fps=433 q=-0.0 size=N/A time=00:10:42.55 bitrate=N/A speed=  18x    frame=15609 fps=432 q=-0.0 size=N/A time=00:10:51.02 bitrate=N/A speed=  18x    frame=15837 fps=432 q=-0.0 size=N/A time=00:11:00.53 bitrate=N/A speed=  18x    frame=16090 fps=433 q=-0.0 size=N/A time=00:11:11.08 bitrate=N/A speed=18.1x    frame=16323 fps=433 q=-0.0 size=N/A time=00:11:20.80 bitrate=N/A speed=18.1x    frame=16557 fps=434 q=-0.0 size=N/A time=00:11:30.56 bitrate=N/A speed=18.1x    frame=16791 fps=434 q=-0.0 size=N/A time=00:11:40.32 bitrate=N/A speed=18.1x    frame=17034 fps=434 q=-0.0 size=N/A time=00:11:50.45 bitrate=N/A speed=18.1x    frame=17296 fps=435 q=-0.0 size=N/A time=00:12:01.38 bitrate=N/A speed=18.2x    frame=17574 fps=437 q=-0.0 size=N/A time=00:12:12.98 bitrate=N/A speed=18.2x    frame=17839 fps=438 q=-0.0 size=N/A time=00:12:24.03 bitrate=N/A speed=18.3x    frame=18111 fps=439 q=-0.0 size=N/A time=00:12:35.37 bitrate=N/A speed=18.3x    frame=18361 fps=439 q=-0.0 size=N/A time=00:12:45.80 bitrate=N/A speed=18.3x    frame=18640 fps=441 q=-0.0 size=N/A time=00:12:57.44 bitrate=N/A speed=18.4x    frame=18909 fps=442 q=-0.0 size=N/A time=00:13:08.66 bitrate=N/A speed=18.4x    frame=19188 fps=443 q=-0.0 size=N/A time=00:13:20.29 bitrate=N/A speed=18.5x    frame=19451 fps=444 q=-0.0 size=N/A time=00:13:31.26 bitrate=N/A speed=18.5x    frame=19692 fps=444 q=-0.0 size=N/A time=00:13:41.32 bitrate=N/A speed=18.5x    frame=19962 fps=445 q=-0.0 size=N/A time=00:13:52.58 bitrate=N/A speed=18.5x    frame=20238 fps=446 q=-0.0 size=N/A time=00:14:04.09 bitrate=N/A speed=18.6x    frame=20492 fps=446 q=-0.0 size=N/A time=00:14:14.68 bitrate=N/A speed=18.6x    frame=20743 fps=447 q=-0.0 size=N/A time=00:14:25.15 bitrate=N/A speed=18.6x    frame=20983 fps=447 q=-0.0 size=N/A time=00:14:35.16 bitrate=N/A speed=18.6x    frame=21221 fps=447 q=-0.0 size=N/A time=00:14:45.09 bitrate=N/A speed=18.6x    frame=21458 fps=447 q=-0.0 size=N/A time=00:14:54.97 bitrate=N/A speed=18.7x    frame=21670 fps=447 q=-0.0 size=N/A time=00:15:03.81 bitrate=N/A speed=18.6x    frame=21899 fps=447 q=-0.0 size=N/A time=00:15:13.37 bitrate=N/A speed=18.6x    frame=22128 fps=447 q=-0.0 size=N/A time=00:15:22.92 bitrate=N/A speed=18.6x    frame=22357 fps=447 q=-0.0 size=N/A time=00:15:32.47 bitrate=N/A speed=18.6x    frame=22526 fps=445 q=-0.0 size=N/A time=00:15:39.52 bitrate=N/A speed=18.6x    frame=22746 fps=445 q=-0.0 size=N/A time=00:15:48.69 bitrate=N/A speed=18.6x    frame=22970 fps=445 q=-0.0 size=N/A time=00:15:58.04 bitrate=N/A speed=18.6x    frame=23203 fps=445 q=-0.0 size=N/A time=00:16:07.75 bitrate=N/A speed=18.6x    frame=23437 fps=445 q=-0.0 size=N/A time=00:16:17.51 bitrate=N/A speed=18.6x    frame=23679 fps=446 q=-0.0 size=N/A time=00:16:27.61 bitrate=N/A speed=18.6x    frame=23935 fps=446 q=-0.0 size=N/A time=00:16:38.28 bitrate=N/A speed=18.6x    frame=24160 fps=446 q=-0.0 size=N/A time=00:16:47.67 bitrate=N/A speed=18.6x    frame=24368 fps=445 q=-0.0 size=N/A time=00:16:56.34 bitrate=N/A speed=18.6x    frame=24575 fps=445 q=-0.0 size=N/A time=00:17:04.98 bitrate=N/A speed=18.6x    frame=24849 fps=446 q=-0.0 size=N/A time=00:17:16.41 bitrate=N/A speed=18.6x    frame=25111 fps=446 q=-0.0 size=N/A time=00:17:27.33 bitrate=N/A speed=18.6x    frame=25361 fps=447 q=-0.0 size=N/A time=00:17:37.76 bitrate=N/A speed=18.6x    frame=25581 fps=447 q=-0.0 size=N/A time=00:17:46.94 bitrate=N/A speed=18.6x    frame=25798 fps=446 q=-0.0 size=N/A time=00:17:55.99 bitrate=N/A speed=18.6x    frame=26000 fps=446 q=-0.0 size=N/A time=00:18:04.41 bitrate=N/A speed=18.6x    frame=26184 fps=445 q=-0.0 size=N/A time=00:18:12.09 bitrate=N/A speed=18.6x    frame=26368 fps=444 q=-0.0 size=N/A time=00:18:19.76 bitrate=N/A speed=18.5x    frame=26578 fps=444 q=-0.0 size=N/A time=00:18:28.52 bitrate=N/A speed=18.5x    frame=26804 fps=444 q=-0.0 size=N/A time=00:18:37.95 bitrate=N/A speed=18.5x    frame=27014 fps=444 q=-0.0 size=N/A time=00:18:46.70 bitrate=N/A speed=18.5x    frame=27247 fps=444 q=-0.0 size=N/A time=00:18:56.42 bitrate=N/A speed=18.5x    frame=27470 fps=444 q=-0.0 size=N/A time=00:19:05.72 bitrate=N/A speed=18.5x    frame=27675 fps=443 q=-0.0 size=N/A time=00:19:14.27 bitrate=N/A speed=18.5x    frame=27876 fps=443 q=-0.0 size=N/A time=00:19:22.66 bitrate=N/A speed=18.5x    frame=28126 fps=443 q=-0.0 size=N/A time=00:19:33.08 bitrate=N/A speed=18.5x    frame=28328 fps=443 q=-0.0 size=N/A time=00:19:41.51 bitrate=N/A speed=18.5x    frame=28547 fps=443 q=-0.0 size=N/A time=00:19:50.64 bitrate=N/A speed=18.5x    frame=28772 fps=443 q=-0.0 size=N/A time=00:20:00.03 bitrate=N/A speed=18.5x    frame=29024 fps=443 q=-0.0 size=N/A time=00:20:10.54 bitrate=N/A speed=18.5x    frame=29255 fps=443 q=-0.0 size=N/A time=00:20:20.17 bitrate=N/A speed=18.5x    frame=29476 fps=443 q=-0.0 size=N/A time=00:20:29.39 bitrate=N/A speed=18.5x    frame=29679 fps=443 q=-0.0 size=N/A time=00:20:37.86 bitrate=N/A speed=18.5x    frame=29924 fps=443 q=-0.0 size=N/A time=00:20:48.08 bitrate=N/A speed=18.5x    frame=30163 fps=443 q=-0.0 size=N/A time=00:20:58.04 bitrate=N/A speed=18.5x    frame=30408 fps=443 q=-0.0 size=N/A time=00:21:08.26 bitrate=N/A speed=18.5x    frame=30644 fps=443 q=-0.0 size=N/A time=00:21:18.11 bitrate=N/A speed=18.5x    frame=30856 fps=443 q=-0.0 size=N/A time=00:21:26.95 bitrate=N/A speed=18.5x    frame=31076 fps=443 q=-0.0 size=N/A time=00:21:36.12 bitrate=N/A speed=18.5x    frame=31296 fps=443 q=-0.0 size=N/A time=00:21:45.30 bitrate=N/A speed=18.5x    frame=31502 fps=442 q=-0.0 size=N/A time=00:21:53.89 bitrate=N/A speed=18.5x    frame=31695 fps=442 q=-0.0 size=N/A time=00:22:01.94 bitrate=N/A speed=18.4x    frame=31929 fps=442 q=-0.0 size=N/A time=00:22:11.70 bitrate=N/A speed=18.4x    frame=32169 fps=442 q=-0.0 size=N/A time=00:22:21.71 bitrate=N/A speed=18.4x    frame=32314 fps=441 q=-0.0 size=N/A time=00:22:27.76 bitrate=N/A speed=18.4x    frame=32501 fps=440 q=-0.0 size=N/A time=00:22:35.56 bitrate=N/A speed=18.4x    frame=32682 fps=440 q=-0.0 size=N/A time=00:22:43.11 bitrate=N/A speed=18.3x    frame=32852 fps=439 q=-0.0 size=N/A time=00:22:50.20 bitrate=N/A speed=18.3x    frame=32996 fps=438 q=-0.0 size=N/A time=00:22:56.20 bitrate=N/A speed=18.3x    frame=33140 fps=437 q=-0.0 size=N/A time=00:23:02.21 bitrate=N/A speed=18.2x    frame=33287 fps=436 q=-0.0 size=N/A time=00:23:08.34 bitrate=N/A speed=18.2x    frame=33430 fps=435 q=-0.0 size=N/A time=00:23:14.30 bitrate=N/A speed=18.1x    frame=33555 fps=434 q=-0.0 size=N/A time=00:23:19.52 bitrate=N/A speed=18.1x    frame=33719 fps=433 q=-0.0 size=N/A time=00:23:26.36 bitrate=N/A speed=18.1x    frame=33878 fps=432 q=-0.0 size=N/A time=00:23:32.99 bitrate=N/A speed=  18x    frame=34025 fps=431 q=-0.0 size=N/A time=00:23:39.12 bitrate=N/A speed=  18x    frame=34191 fps=430 q=-0.0 size=N/A time=00:23:46.04 bitrate=N/A speed=17.9x    frame=34354 fps=430 q=-0.0 size=N/A time=00:23:52.84 bitrate=N/A speed=17.9x    frame=34461 fps=428 q=-0.0 size=N/A time=00:23:57.31 bitrate=N/A speed=17.9x    frame=34661 fps=428 q=-0.0 size=N/A time=00:24:05.65 bitrate=N/A speed=17.8x    frame=34901 fps=428 q=-0.0 size=N/A time=00:24:15.66 bitrate=N/A speed=17.9x    [Parsed_psnr_10 @ 000002310499aa40] PSNR y:47.757380 u:49.949086 v:49.671606 average:48.339572 min:39.138268 max:inf
[out#0/null @ 0000023104956140] video:15006KiB audio:273132KiB subtitle:0KiB other streams:0KiB global headers:0KiB muxing overhead: unknown
frame=34922 fps=428 q=-0.0 Lsize=N/A time=00:24:16.53 bitrate=N/A speed=17.9x    
